<svg id="visual" viewBox="0 0 900 600" width="900" height="600" xmlns="http://www.w3.org/2000/svg" xmlns:xlink="http://www.w3.org/1999/xlink" version="1.1"><rect x="0" y="0" width="900" height="600" fill="#1b004b"></rect><path d="M0 478L18.8 473.5C37.7 469 75.3 460 112.8 438.3C150.3 416.7 187.7 382.3 225.2 378C262.7 373.7 300.3 399.3 337.8 417.7C375.3 436 412.7 447 450.2 432C487.7 417 525.3 376 562.8 362C600.3 348 637.7 361 675.2 365.7C712.7 370.3 750.3 366.7 787.8 382C825.3 397.3 862.7 431.7 881.3 448.8L900 466L900 601L881.3 601C862.7 601 825.3 601 787.8 601C750.3 601 712.7 601 675.2 601C637.7 601 600.3 601 562.8 601C525.3 601 487.7 601 450.2 601C412.7 601 375.3 601 337.8 601C300.3 601 262.7 601 225.2 601C187.7 601 150.3 601 112.8 601C75.3 601 37.7 601 18.8 601L0 601Z" fill="#7f00b2" stroke-linecap="round" stroke-linejoin="miter"></path></svg>
